name rise37.2698peak67.6939fall79.5734.mot
datacolumns 19
datarows 24
range 4.80164900000000 4.83998100000000
endheader
time	ground_force1_vx	ground_force1_vy	ground_force1_vz	ground_force1_px	ground_force1_py	ground_force1_pz	ground_force2_vx	ground_force2_vy	ground_force2_vz	ground_force2_px	ground_force2_py	ground_force2_pz	ground_torque1_x	ground_torque1_y	ground_torque1_z	ground_torque2_x	ground_torque2_y	ground_torque2_z	
4.80164900000000	50.82700000000000	808.87342799999999	74.08157400000000	0.28815200000000	0.00000000000000	0.13895800000000	0.00000000000000	0.00000000000000	0.00000000000000	0.00000000000000	0.00000000000000	0.00000000000000	0.00000000000000	29.42674100000000	0.00000000000000	0.00000000000000	0.00000000000000	0.00000000000000	
4.80331800000000	49.99279900000000	809.71386399999994	74.09417500000001	0.28696300000000	0.00000000000000	0.13898500000000	0.00000000000000	0.00000000000000	0.00000000000000	0.00000000000000	0.00000000000000	0.00000000000000	0.00000000000000	29.44657600000000	0.00000000000000	0.00000000000000	0.00000000000000	0.00000000000000	
4.80498700000000	49.16586100000000	810.39223200000004	74.09762300000000	0.28579100000000	0.00000000000000	0.13901200000000	0.00000000000000	0.00000000000000	0.00000000000000	0.00000000000000	0.00000000000000	0.00000000000000	0.00000000000000	29.46057500000000	0.00000000000000	0.00000000000000	0.00000000000000	0.00000000000000	
4.80665100000000	48.34640400000000	810.91030699999999	74.09195600000000	0.28463500000000	0.00000000000000	0.13903900000000	0.00000000000000	0.00000000000000	0.00000000000000	0.00000000000000	0.00000000000000	0.00000000000000	0.00000000000000	29.46872600000000	0.00000000000000	0.00000000000000	0.00000000000000	0.00000000000000	
4.80831900000000	47.53457000000000	811.27013599999998	74.07718600000000	0.28349400000000	0.00000000000000	0.13906700000000	0.00000000000000	0.00000000000000	0.00000000000000	0.00000000000000	0.00000000000000	0.00000000000000	0.00000000000000	29.47100900000000	0.00000000000000	0.00000000000000	0.00000000000000	0.00000000000000	
4.80998000000000	46.73042900000000	811.47404100000006	74.05330200000000	0.28236500000000	0.00000000000000	0.13909500000000	0.00000000000000	0.00000000000000	0.00000000000000	0.00000000000000	0.00000000000000	0.00000000000000	0.00000000000000	29.46740200000000	0.00000000000000	0.00000000000000	0.00000000000000	0.00000000000000	
4.81165100000000	45.93398200000000	811.52461200000005	74.02026600000001	0.28124600000000	0.00000000000000	0.13912400000000	0.00000000000000	0.00000000000000	0.00000000000000	0.00000000000000	0.00000000000000	0.00000000000000	0.00000000000000	29.45787600000000	0.00000000000000	0.00000000000000	0.00000000000000	0.00000000000000	
4.81331600000000	45.14516900000000	811.42471100000000	73.97802400000000	0.28013800000000	0.00000000000000	0.13915300000000	0.00000000000000	0.00000000000000	0.00000000000000	0.00000000000000	0.00000000000000	0.00000000000000	0.00000000000000	29.44240300000000	0.00000000000000	0.00000000000000	0.00000000000000	0.00000000000000	
4.81497900000000	44.36387300000000	811.17746399999999	73.92650600000000	0.27903600000000	0.00000000000000	0.13918300000000	0.00000000000000	0.00000000000000	0.00000000000000	0.00000000000000	0.00000000000000	0.00000000000000	0.00000000000000	29.42095300000000	0.00000000000000	0.00000000000000	0.00000000000000	0.00000000000000	
4.81664800000000	43.58992300000000	810.78625699999998	73.86563000000000	0.27794000000000	0.00000000000000	0.13921300000000	0.00000000000000	0.00000000000000	0.00000000000000	0.00000000000000	0.00000000000000	0.00000000000000	0.00000000000000	29.39349800000000	0.00000000000000	0.00000000000000	0.00000000000000	0.00000000000000	
4.81832100000000	42.82310500000000	810.25472800000000	73.79530300000000	0.27684800000000	0.00000000000000	0.13924300000000	0.00000000000000	0.00000000000000	0.00000000000000	0.00000000000000	0.00000000000000	0.00000000000000	0.00000000000000	29.36001000000000	0.00000000000000	0.00000000000000	0.00000000000000	0.00000000000000	
4.81998300000000	42.06316200000000	809.58676100000002	73.71542700000001	0.27575800000000	0.00000000000000	0.13927400000000	0.00000000000000	0.00000000000000	0.00000000000000	0.00000000000000	0.00000000000000	0.00000000000000	0.00000000000000	29.32046800000000	0.00000000000000	0.00000000000000	0.00000000000000	0.00000000000000	
4.82165400000000	41.30980300000000	808.78647400000000	73.62590100000000	0.27466800000000	0.00000000000000	0.13930600000000	0.00000000000000	0.00000000000000	0.00000000000000	0.00000000000000	0.00000000000000	0.00000000000000	0.00000000000000	29.27485500000000	0.00000000000000	0.00000000000000	0.00000000000000	0.00000000000000	
4.82331800000000	40.56270700000000	807.85820999999999	73.52662400000000	0.27357700000000	0.00000000000000	0.13933800000000	0.00000000000000	0.00000000000000	0.00000000000000	0.00000000000000	0.00000000000000	0.00000000000000	0.00000000000000	29.22316100000000	0.00000000000000	0.00000000000000	0.00000000000000	0.00000000000000	
4.82498500000000	39.82153100000000	806.80652699999996	73.41750100000000	0.27248100000000	0.00000000000000	0.13937000000000	0.00000000000000	0.00000000000000	0.00000000000000	0.00000000000000	0.00000000000000	0.00000000000000	0.00000000000000	29.16538400000000	0.00000000000000	0.00000000000000	0.00000000000000	0.00000000000000	
4.82664600000000	39.08591000000000	805.63618199999996	73.29844000000000	0.27138100000000	0.00000000000000	0.13940300000000	0.00000000000000	0.00000000000000	0.00000000000000	0.00000000000000	0.00000000000000	0.00000000000000	0.00000000000000	29.10153200000000	0.00000000000000	0.00000000000000	0.00000000000000	0.00000000000000	
4.82831400000000	38.35547000000000	804.35212100000001	73.16936099999999	0.27027300000000	0.00000000000000	0.13943700000000	0.00000000000000	0.00000000000000	0.00000000000000	0.00000000000000	0.00000000000000	0.00000000000000	0.00000000000000	29.03162200000000	0.00000000000000	0.00000000000000	0.00000000000000	0.00000000000000	
4.82998300000000	37.62982900000000	802.95945900000004	73.03019300000000	0.26915600000000	0.00000000000000	0.13947100000000	0.00000000000000	0.00000000000000	0.00000000000000	0.00000000000000	0.00000000000000	0.00000000000000	0.00000000000000	28.95568400000000	0.00000000000000	0.00000000000000	0.00000000000000	0.00000000000000	
4.83164700000000	36.90860000000000	801.46347300000002	72.88088300000000	0.26802800000000	0.00000000000000	0.13950500000000	0.00000000000000	0.00000000000000	0.00000000000000	0.00000000000000	0.00000000000000	0.00000000000000	0.00000000000000	28.87376000000000	0.00000000000000	0.00000000000000	0.00000000000000	0.00000000000000	
4.83331300000000	36.19140200000000	799.86957900000004	72.72139400000000	0.26688800000000	0.00000000000000	0.13954000000000	0.00000000000000	0.00000000000000	0.00000000000000	0.00000000000000	0.00000000000000	0.00000000000000	0.00000000000000	28.78590500000000	0.00000000000000	0.00000000000000	0.00000000000000	0.00000000000000	
4.83498100000000	35.47785800000000	798.18331699999999	72.55170600000000	0.26573500000000	0.00000000000000	0.13957600000000	0.00000000000000	0.00000000000000	0.00000000000000	0.00000000000000	0.00000000000000	0.00000000000000	0.00000000000000	28.69218800000000	0.00000000000000	0.00000000000000	0.00000000000000	0.00000000000000	
4.83664700000000	34.76760400000000	796.41033700000003	72.37182300000001	0.26456600000000	0.00000000000000	0.13961200000000	0.00000000000000	0.00000000000000	0.00000000000000	0.00000000000000	0.00000000000000	0.00000000000000	0.00000000000000	28.59269500000000	0.00000000000000	0.00000000000000	0.00000000000000	0.00000000000000	
4.83831200000000	34.06029100000000	794.55637899999999	72.18177100000000	0.26338000000000	0.00000000000000	0.13964800000000	0.00000000000000	0.00000000000000	0.00000000000000	0.00000000000000	0.00000000000000	0.00000000000000	0.00000000000000	28.48752400000000	0.00000000000000	0.00000000000000	0.00000000000000	0.00000000000000	
4.83998100000000	33.35559000000000	792.62725399999999	71.98160000000000	0.26217700000000	0.00000000000000	0.13968500000000	0.00000000000000	0.00000000000000	0.00000000000000	0.00000000000000	0.00000000000000	0.00000000000000	0.00000000000000	28.37679300000000	0.00000000000000	0.00000000000000	0.00000000000000	0.00000000000000	
